<svg xmlns="http://www.w3.org/2000/svg" width="39" height="39" fill="currentColor" viewBox="0 0 39 39">
  <g clip-path="url(#a)">
    <path d="M8.65 12.15a2.45 2.45 0 1 1 4.9 0 2.45 2.45 0 0 1-4.9 0Zm-.35 6.9c-.438.49-.7 1.141-.7 1.85 0 .709.263 1.36.7 1.85v-3.7Zm6.317-2.158A6.272 6.272 0 0 0 12.5 21.6c0 1.5.525 2.879 1.4 3.96v.94c0 .774-.626 1.4-1.4 1.4H9.7c-.774 0-1.4-.626-1.4-1.4v-1.172A4.902 4.902 0 0 1 5.5 20.9c0-2.708 2.192-4.9 4.9-4.9h1.4c1.05 0 2.021.328 2.817.888v.004ZM25.1 26.5v-.94a6.271 6.271 0 0 0 1.4-3.96 6.289 6.289 0 0 0-2.117-4.712A4.879 4.879 0 0 1 27.2 16h1.4c2.708 0 4.9 2.192 4.9 4.9a4.902 4.902 0 0 1-2.8 4.428V26.5c0 .774-.626 1.4-1.4 1.4h-2.8c-.774 0-1.4-.626-1.4-1.4Zm.35-14.35a2.45 2.45 0 1 1 4.9 0 2.45 2.45 0 0 1-4.9 0Zm5.25 6.9v3.705a2.78 2.78 0 0 0 .7-1.85c0-.71-.262-1.361-.7-1.851v-.005ZM19.5 9.7a2.8 2.8 0 1 1 0 5.6 2.8 2.8 0 0 1 0-5.6ZM16 21.6c0 .709.262 1.356.7 1.85v-3.7a2.78 2.78 0 0 0-.7 1.85Zm6.3-1.85v3.705a2.78 2.78 0 0 0 .7-1.85c0-.71-.262-1.361-.7-1.851v-.005Zm2.8 1.85a4.902 4.902 0 0 1-2.8 4.427V27.9c0 .774-.626 1.4-1.4 1.4h-2.8c-.774 0-1.4-.626-1.4-1.4v-1.872a4.902 4.902 0 0 1-2.8-4.428c0-2.708 2.192-4.9 4.9-4.9h1.4c2.708 0 4.9 2.192 4.9 4.9Z"/>
  </g>
  <defs>
    <clipPath id="a">
      <path d="M0 0h28v22.4H0z" transform="translate(5.5 8.3)"/>
    </clipPath>
  </defs>
</svg>
