<svg xmlns="http://www.w3.org/2000/svg" width="39" height="39" fill="currentColor" viewBox="0 0 39 39">
  <g clip-path="url(#a)">
    <path d="M33.5 19.85v-.7a.7.7 0 0 0-.7-.7H20.55V16.7h3.15a1.4 1.4 0 0 0 1.4-1.4V9.7a1.4 1.4 0 0 0-1.4-1.4h-8.4a1.4 1.4 0 0 0-1.4 1.4v5.6a1.4 1.4 0 0 0 1.4 1.4h3.15v1.75H6.2a.7.7 0 0 0-.7.7v.7a.7.7 0 0 0 .7.7h4.55v1.75H8.3a1.4 1.4 0 0 0-1.4 1.4v5.6a1.4 1.4 0 0 0 1.4 1.4h7a1.4 1.4 0 0 0 1.4-1.4v-5.6a1.4 1.4 0 0 0-1.4-1.4h-2.45v-1.75h13.3v1.75H23.7a1.4 1.4 0 0 0-1.4 1.4v5.6a1.4 1.4 0 0 0 1.4 1.4h7a1.4 1.4 0 0 0 1.4-1.4v-5.6a1.4 1.4 0 0 0-1.4-1.4h-2.45v-1.75h4.55a.7.7 0 0 0 .7-.7ZM16.7 13.9v-2.8h5.6v2.8h-5.6Zm-2.8 14H9.7v-2.8h4.2v2.8Zm15.4 0h-4.2v-2.8h4.2v2.8Z"/>
  </g>
  <defs>
    <clipPath id="a">
      <path d="M0 0h28v22.4H0z" transform="translate(5.5 8.3)"/>
    </clipPath>
  </defs>
</svg>
