<svg xmlns="http://www.w3.org/2000/svg" width="39" height="39" fill="currentColor" viewBox="0 0 39 39">
  <g clip-path="url(#a)">
    <path d="M27.375 8.459A13.535 13.535 0 0 1 33.063 19.5c0 7.481-6.06 13.546-13.536 13.563-7.465.016-13.579-6.07-13.59-13.541a13.564 13.564 0 0 1 5.677-11.058 1.316 1.316 0 0 1 1.914.421l.864 1.537c.323.574.17 1.301-.36 1.695a9.143 9.143 0 0 0-3.72 7.377c-.005 5.048 4.075 9.194 9.188 9.194 5.01 0 9.22-4.058 9.188-9.248a9.191 9.191 0 0 0-3.725-7.328 1.305 1.305 0 0 1-.355-1.69l.864-1.537a1.31 1.31 0 0 1 1.903-.426Zm-5.688 11.479V6.813A1.31 1.31 0 0 0 20.375 5.5h-1.75a1.31 1.31 0 0 0-1.313 1.313v13.125a1.31 1.31 0 0 0 1.313 1.312h1.75a1.31 1.31 0 0 0 1.313-1.313Z"/>
  </g>
  <defs>
    <clipPath id="a">
      <path d="M0 0h28v28H0z" transform="translate(5.5 5.5)"/>
    </clipPath>
  </defs>
</svg>
