<svg xmlns="http://www.w3.org/2000/svg" width="30" height="30" fill="currentColor" viewBox="0 0 30 30">
  <g clip-path="url(#a)">
    <path d="m24.727 22.293-3.895-3.895a.937.937 0 0 0-.664-.273h-.637a8.085 8.085 0 0 0 1.719-5A8.124 8.124 0 0 0 13.125 5 8.124 8.124 0 0 0 5 13.125a8.124 8.124 0 0 0 8.125 8.125 8.08 8.08 0 0 0 5-1.719v.637c0 .25.098.488.273.664l3.895 3.895a.934.934 0 0 0 1.324 0l1.106-1.106a.942.942 0 0 0 .004-1.328Zm-11.602-4.168c-2.762 0-5-2.234-5-5 0-2.762 2.234-5 5-5 2.762 0 5 2.234 5 5 0 2.762-2.234 5-5 5Z"/>
  </g>
  <defs>
    <clipPath id="a">
      <path d="M0 0h20v20H0z" transform="translate(5 5)"/>
    </clipPath>
  </defs>
</svg>
