<svg xmlns="http://www.w3.org/2000/svg" width="39" height="39" fill="currentColor" viewBox="0 0 39 39">
  <g clip-path="url(#a)">
    <path d="m32.155 22.765-2.33-1.346c.235-1.268.235-2.57 0-3.838l2.33-1.346a.661.661 0 0 0 .3-.765 13.623 13.623 0 0 0-2.99-5.174.658.658 0 0 0-.81-.126l-2.33 1.346A10.323 10.323 0 0 0 23 9.596V6.911a.655.655 0 0 0-.514-.64 13.748 13.748 0 0 0-5.972 0 .655.655 0 0 0-.514.64V9.6a10.647 10.647 0 0 0-3.325 1.92l-2.324-1.345a.65.65 0 0 0-.81.126 13.538 13.538 0 0 0-2.991 5.173.654.654 0 0 0 .3.766l2.33 1.345a10.534 10.534 0 0 0 0 3.839L6.85 22.77a.661.661 0 0 0-.3.766 13.62 13.62 0 0 0 2.991 5.173.658.658 0 0 0 .81.126l2.33-1.345a10.322 10.322 0 0 0 3.325 1.92v2.69c0 .306.213.574.514.64a13.75 13.75 0 0 0 5.971 0 .655.655 0 0 0 .515-.64v-2.69a10.647 10.647 0 0 0 3.325-1.92l2.33 1.345a.65.65 0 0 0 .808-.126 13.538 13.538 0 0 0 2.992-5.173.675.675 0 0 0-.306-.771ZM19.5 23.875a4.38 4.38 0 0 1-4.375-4.375 4.38 4.38 0 0 1 4.375-4.375 4.38 4.38 0 0 1 4.375 4.375 4.38 4.38 0 0 1-4.375 4.375Z"/>
  </g>
  <defs>
    <clipPath id="a">
      <path d="M0 0h28v28H0z" transform="translate(5.5 5.5)"/>
    </clipPath>
  </defs>
</svg>
