<svg xmlns="http://www.w3.org/2000/svg" width="39" height="39" fill="currentColor" viewBox="0 0 39 39">
  <g clip-path="url(#a)">
    <path d="M19.5 5.5A5.244 5.244 0 0 0 14.55 9H12.5C10.57 9 9 10.57 9 12.5V30c0 1.93 1.57 3.5 3.5 3.5h14c1.93 0 3.5-1.57 3.5-3.5V12.5c0-1.93-1.57-3.5-3.5-3.5h-2.05a5.244 5.244 0 0 0-4.95-3.5Zm0 3.5a1.75 1.75 0 1 1 0 3.5 1.75 1.75 0 0 1 0-3.5Zm-6.563 11.375a1.313 1.313 0 1 1 2.626 0 1.313 1.313 0 0 1-2.626 0Zm5.688-.875h7c.481 0 .875.394.875.875a.878.878 0 0 1-.875.875h-7a.878.878 0 0 1-.875-.875c0-.481.394-.875.875-.875Zm-5.688 6.125a1.313 1.313 0 1 1 2.626 0 1.313 1.313 0 0 1-2.626 0Zm4.813 0c0-.481.394-.875.875-.875h7c.481 0 .875.394.875.875a.878.878 0 0 1-.875.875h-7a.878.878 0 0 1-.875-.875Z"/>
  </g>
  <defs>
    <clipPath id="a">
      <path d="M0 0h21v28H0z" transform="translate(9 5.5)"/>
    </clipPath>
  </defs>
</svg>
