<svg xmlns="http://www.w3.org/2000/svg" width="39" height="39" fill="currentColor" viewBox="0 0 39 39">
  <path d="M31.167 15.022v.085c0 1.004 0 1.507-.242 1.917-.241.411-.681.655-1.559 1.144l-.925.513c.637-2.156.85-4.473.929-6.454l.012-.258.002-.06c.76.263 1.186.46 1.453.829.33.459.33 1.068.33 2.284Zm-23.334 0v.085c0 1.004 0 1.507.242 1.917.241.411.681.655 1.558 1.144l.927.513c-.638-2.156-.852-4.473-.93-6.454l-.012-.258v-.06c-.762.263-1.189.46-1.455.829-.33.459-.33 1.069-.33 2.284Z"/>
  <path fill-rule="evenodd" d="M19.5 7.833c2.081 0 3.795.184 5.107.405 1.328.224 1.992.336 2.547 1.02.556.684.526 1.422.467 2.899-.2 5.074-1.295 11.41-7.246 11.97v4.123h1.668a1.167 1.167 0 0 1 1.144.938l.221 1.104H26.5a.875.875 0 1 1 0 1.75h-14a.875.875 0 1 1 0-1.75h3.092l.221-1.104a1.167 1.167 0 0 1 1.144-.938h1.668v-4.123c-5.95-.56-7.044-6.897-7.245-11.97-.06-1.477-.089-2.217.467-2.9.554-.683 1.218-.795 2.546-1.019a30.769 30.769 0 0 1 5.107-.405Zm1.11 4.9-.114-.206c-.443-.797-.665-1.194-.996-1.194-.331 0-.553.397-.996 1.194l-.115.205c-.126.227-.189.338-.287.413-.099.075-.221.103-.466.158l-.222.051c-.861.195-1.292.292-1.394.62-.103.33.191.674.778 1.36l.152.177c.166.195.25.292.288.413.037.122.024.251 0 .511l-.023.237c-.09.916-.134 1.374.134 1.577.268.203.672.018 1.478-.353l.207-.096c.23-.105.345-.157.466-.157.121 0 .236.052.465.157l.208.096c.806.372 1.21.556 1.478.353.269-.203.223-.661.134-1.577l-.023-.237c-.024-.26-.037-.39 0-.51.037-.121.122-.219.288-.414l.152-.177c.587-.686.88-1.03.778-1.36-.102-.328-.533-.425-1.394-.62l-.222-.051c-.245-.055-.367-.082-.466-.158-.098-.075-.161-.186-.287-.413Z" clip-rule="evenodd"/>
</svg>
